<svg width="25" height="25" viewBox="0 0 25 25" fill="none" xmlns="http://www.w3.org/2000/svg">
<g clip-path="url(#clip0_50_40)">
<path d="M10.825 9.9C10.675 10.525 9.9 10.175 10.225 10.25L5.3 9C5.025 8.925 4.875 8.65 4.95 8.4C5.025 8.125 5.3 7.975 5.55 8.05L10.475 9.325C10.725 9.375 10.875 9.65 10.825 9.9ZM10.45 12.65L5.525 11.375C5.25 11.3 4.975 11.475 4.925 11.725C4.85 12 5.025 12.275 5.275 12.325L10.2 13.6C9.875 13.525 10.65 13.825 10.8 13.25C10.875 13 10.725 12.725 10.45 12.65ZM8.975 15.575L5.525 14.675C5.25 14.6 4.975 14.775 4.925 15.025C4.85 15.3 5.025 15.575 5.275 15.625L8.725 16.525C8.4 16.45 9.175 16.75 9.325 16.175C9.4 15.925 9.25 15.65 8.975 15.575ZM22.5 4.75V17.875C22.5 18.1 22.35 18.3 22.125 18.35L12.625 20.725C12.55 20.75 12.45 20.75 12.375 20.725L2.875 18.35C2.65 18.3 2.5 18.1 2.5 17.875V4.75C2.5 4.425 2.8 4.175 3.125 4.275L12.5 6.625L21.875 4.275C22.2 4.175 22.5 4.425 22.5 4.75ZM12 7.525L3.5 5.4V17.475L12 19.6V7.525ZM21.5 5.4L13 7.525V19.6L21.5 17.475V5.4ZM20.05 8.4C19.975 8.125 19.7 7.975 19.45 8.05L14.525 9.325C14.25 9.4 14.1 9.675 14.175 9.925C14.325 10.55 15.1 10.2 14.775 10.275L19.7 9C19.975 8.925 20.125 8.65 20.05 8.4ZM20.05 11.75C19.975 11.475 19.7 11.325 19.45 11.4L14.525 12.675C14.25 12.75 14.1 13.025 14.175 13.275C14.325 13.875 15.1 13.55 14.775 13.625L19.7 12.35C19.975 12.275 20.125 12 20.05 11.75ZM18.575 15.425C18.5 15.15 18.225 15 17.975 15.075L14.525 15.975C14.25 16.05 14.1 16.325 14.175 16.575C14.325 17.2 15.1 16.85 14.775 16.925L18.225 16.05C18.5 15.975 18.65 15.7 18.575 15.425Z" fill="#808080"/>
<path d="M411 -232.5V188.5H-35V-232.5H411ZM413 -234.5H-37V190.5H413V-234.5Z" fill="#0000FF"/>
</g>
<defs>
<clipPath id="clip0_50_40">
<rect width="25" height="25" fill="white"/>
</clipPath>
</defs>
</svg>
