<svg width="25" height="25" viewBox="0 0 25 25" fill="none" xmlns="http://www.w3.org/2000/svg">
<g clip-path="url(#clip0_60_45)">
<path fill-rule="evenodd" clip-rule="evenodd" d="M8.84367 1.1948H16.1562C18.677 1.1948 20.7291 3.18958 20.7291 5.58437C20.7291 6.98437 20.027 8.24896 18.9395 9.05625C20.027 9.86459 20.7291 11.1281 20.7291 12.5292C20.7291 14.9229 18.677 16.9177 16.1562 16.9177C15.1291 16.9177 14.1801 16.5875 13.4166 16.0333V19.4729C13.4166 21.8677 11.3655 23.8625 8.84367 23.8625C6.32283 23.8625 4.27075 21.8677 4.27075 19.4729C4.27075 18.0729 4.97282 16.8094 6.06032 16.001C4.97282 15.1927 4.27075 13.9292 4.27075 12.5292C4.27075 11.1281 4.97282 9.86459 6.06032 9.05625C4.97282 8.24896 4.27075 6.98437 4.27075 5.58437C4.27075 3.18958 6.32283 1.1948 8.84367 1.1948ZM11.5832 16.9177H8.84367C7.35408 16.9177 6.10408 18.0583 6.10408 19.4729C6.10408 20.8885 7.35408 22.0281 8.84367 22.0281C10.3343 22.0281 11.5832 20.8885 11.5832 19.4729V16.9177ZM13.4166 12.5292C13.4166 11.1136 14.6655 9.97293 16.1562 9.97293C17.6457 9.97293 18.8957 11.1136 18.8957 12.5292C18.8957 13.9438 17.6457 15.0844 16.1562 15.0844C14.6655 15.0844 13.4166 13.9438 13.4166 12.5292ZM8.80929 9.97398C7.33429 9.99064 6.10408 11.125 6.10408 12.5292C6.10408 13.9438 7.35408 15.0844 8.84367 15.0844H11.5832V9.97293H8.84367L8.80929 9.97398ZM11.5832 8.13958V3.02916H8.84367C7.35408 3.02916 6.10408 4.16875 6.10408 5.58437C6.10408 7 7.35408 8.13958 8.84367 8.13958H11.5832ZM13.4166 8.13958H16.1562C17.6457 8.13958 18.8957 7 18.8957 5.58437C18.8957 4.16875 17.6457 3.02916 16.1562 3.02916H13.4166V8.13958Z" fill="#333333"/>
</g>
<defs>
<clipPath id="clip0_60_45">
<rect width="25" height="25" fill="white"/>
</clipPath>
</defs>
</svg>
