<svg width="25" height="25" viewBox="0 0 25 25" fill="none" xmlns="http://www.w3.org/2000/svg">
<g clip-path="url(#clip0_65_191)">
<path d="M22.6562 3.125H2.34375C1.72215 3.125 1.12601 3.37193 0.686468 3.81147C0.24693 4.25101 0 4.84715 0 5.46875L0 19.5312C0 20.1529 0.24693 20.749 0.686468 21.1885C1.12601 21.6281 1.72215 21.875 2.34375 21.875H22.6562C23.2779 21.875 23.874 21.6281 24.3135 21.1885C24.7531 20.749 25 20.1529 25 19.5312V5.46875C25 4.84715 24.7531 4.25101 24.3135 3.81147C23.874 3.37193 23.2779 3.125 22.6562 3.125ZM19.8969 4.6875L12.5 10.5281L5.10313 4.6875H19.8969ZM3.125 20.3125V7.25937L12.5 14.4703L21.875 7.25781V20.3125H3.125Z" fill="black"/>
</g>
<defs>
<clipPath id="clip0_65_191">
<rect width="25" height="25" fill="white"/>
</clipPath>
</defs>
</svg>
