<svg width="30" height="30" viewBox="0 0 30 30" fill="none" xmlns="http://www.w3.org/2000/svg">
<rect width="30" height="30" rx="15" fill="white"/>
<g clip-path="url(#clip0_65_386)">
<g clip-path="url(#clip1_65_386)">
<path d="M15.0031 11.4063C13.0156 11.4063 11.4125 13.0095 11.4125 14.997C11.4125 16.9845 13.0156 18.5876 15.0031 18.5876C16.9906 18.5876 18.5938 16.9845 18.5938 14.997C18.5938 13.0095 16.9906 11.4063 15.0031 11.4063ZM15.0031 17.3313C13.7188 17.3313 12.6688 16.2845 12.6688 14.997C12.6688 13.7095 13.7156 12.6626 15.0031 12.6626C16.2906 12.6626 17.3375 13.7095 17.3375 14.997C17.3375 16.2845 16.2875 17.3313 15.0031 17.3313ZM19.5781 11.2595C19.5781 11.7251 19.2031 12.097 18.7407 12.097C18.275 12.097 17.9031 11.722 17.9031 11.2595C17.9031 10.797 18.2782 10.422 18.7407 10.422C19.2031 10.422 19.5781 10.797 19.5781 11.2595ZM21.9563 12.1095C21.9031 10.9876 21.6469 9.99385 20.825 9.1751C20.0063 8.35635 19.0125 8.1001 17.8906 8.04385C16.7344 7.97822 13.2688 7.97822 12.1125 8.04385C10.9938 8.09697 10 8.35322 9.17815 9.17197C8.35627 9.99072 8.10315 10.9845 8.0469 12.1063C7.98127 13.2626 7.98127 16.7282 8.0469 17.8845C8.10002 19.0063 8.35627 20.0001 9.17815 20.8188C10 21.6376 10.9906 21.8938 12.1125 21.9501C13.2688 22.0157 16.7344 22.0157 17.8906 21.9501C19.0125 21.897 20.0063 21.6407 20.825 20.8188C21.6438 20.0001 21.9 19.0063 21.9563 17.8845C22.0219 16.7282 22.0219 13.2657 21.9563 12.1095ZM20.4625 19.1251C20.2188 19.7376 19.7469 20.2095 19.1313 20.4563C18.2094 20.822 16.0219 20.7376 15.0031 20.7376C13.9844 20.7376 11.7938 20.8188 10.875 20.4563C10.2625 20.2126 9.79065 19.7407 9.54377 19.1251C9.17815 18.2032 9.26252 16.0157 9.26252 14.997C9.26252 13.9782 9.18127 11.7876 9.54377 10.8688C9.78752 10.2563 10.2594 9.78447 10.875 9.5376C11.7969 9.17197 13.9844 9.25635 15.0031 9.25635C16.0219 9.25635 18.2125 9.1751 19.1313 9.5376C19.7438 9.78135 20.2156 10.2532 20.4625 10.8688C20.8281 11.7907 20.7438 13.9782 20.7438 14.997C20.7438 16.0157 20.8281 18.2063 20.4625 19.1251Z" fill="#F202EA"/>
</g>
</g>
<defs>
<clipPath id="clip0_65_386">
<rect width="16" height="16" fill="white" transform="translate(7 7)"/>
</clipPath>
<clipPath id="clip1_65_386">
<rect width="14" height="16" fill="white" transform="translate(8 7)"/>
</clipPath>
</defs>
</svg>
