<svg width="25" height="25" viewBox="0 0 25 25" fill="none" xmlns="http://www.w3.org/2000/svg">
<path d="M19.2811 4.02917C18.8942 3.64223 18.4349 3.3353 17.9294 3.12589C17.4238 2.91648 16.882 2.8087 16.3348 2.8087C15.7876 2.8087 15.2458 2.91648 14.7402 3.12589C14.2347 3.3353 13.7754 3.64223 13.3884 4.02917L8.96969 8.44896C8.18827 9.23038 7.74927 10.2902 7.74927 11.3953C7.74927 12.5004 8.18827 13.5602 8.96969 14.3417C9.75111 15.1231 10.8109 15.5621 11.916 15.5621C13.0211 15.5621 14.081 15.1231 14.8624 14.3417L15.3853 13.8177C15.3853 13.8177 15.1499 13.1562 14.8624 12.8687C14.5749 12.5802 13.9124 12.3448 13.9124 12.3448L13.3895 12.8687C12.9987 13.2595 12.4687 13.4791 11.916 13.4791C11.3634 13.4791 10.8334 13.2595 10.4426 12.8687C10.0518 12.478 9.83229 11.948 9.83229 11.3953C9.83229 10.8427 10.0518 10.3127 10.4426 9.92187L14.8624 5.50208C15.2532 5.11144 15.7831 4.89203 16.3357 4.89213C16.8882 4.89223 17.4181 5.11182 17.8088 5.5026C18.1994 5.89338 18.4188 6.42334 18.4187 6.97589C18.4186 7.52844 18.199 8.05831 17.8082 8.44896L17.0718 9.18541C17.0718 9.18541 17.5822 9.51666 17.903 9.83854C18.2259 10.1604 18.5447 10.6583 18.5447 10.6583L19.2811 9.92187C19.6681 9.53496 19.975 9.07562 20.1844 8.57008C20.3938 8.06455 20.5016 7.52271 20.5016 6.97552C20.5016 6.42833 20.3938 5.88649 20.1844 5.38095C19.975 4.87542 19.6681 4.41608 19.2811 4.02917Z" fill="#333333"/>
<path d="M17.0729 10.6583C16.686 10.2712 16.2266 9.96418 15.7209 9.75468C15.2153 9.54518 14.6733 9.43735 14.126 9.43735C13.5787 9.43735 13.0368 9.54518 12.5311 9.75468C12.0255 9.96418 11.5661 10.2712 11.1792 10.6583L10.6156 11.2229C10.6156 11.2229 10.8948 11.8479 11.1823 12.1344C11.4698 12.4219 12.0885 12.6958 12.0885 12.6958L12.6521 12.1312C12.8456 11.9378 13.0753 11.7843 13.3281 11.6795C13.5809 11.5748 13.8519 11.5209 14.1255 11.5209C14.3991 11.5209 14.6701 11.5748 14.9229 11.6795C15.1757 11.7843 15.4054 11.9378 15.5989 12.1312C15.7924 12.3247 15.9459 12.5545 16.0506 12.8073C16.1554 13.0601 16.2093 13.331 16.2093 13.6047C16.2093 13.8783 16.1554 14.1493 16.0506 14.4021C15.9459 14.6549 15.7924 14.8846 15.5989 15.0781L11.1792 19.4979C10.9857 19.6913 10.756 19.8448 10.5032 19.9494C10.2504 20.0541 9.97946 20.1079 9.70586 20.1079C9.15332 20.1078 8.62344 19.8882 8.2328 19.4974C7.84215 19.1066 7.62275 18.5767 7.62285 18.0241C7.62294 17.4716 7.84254 16.9417 8.23332 16.551L9.04477 15.7396C9.04477 15.7396 8.52082 15.3656 8.23227 15.0781C7.94582 14.7906 7.57082 14.2667 7.57082 14.2667L6.7604 15.0781C6.36634 15.4634 6.05263 15.923 5.83742 16.4303C5.62222 16.9377 5.50979 17.4827 5.50666 18.0338C5.50353 18.5849 5.60975 19.1311 5.81917 19.6408C6.0286 20.1506 6.33707 20.6137 6.72672 21.0035C7.11637 21.3932 7.57946 21.7017 8.08918 21.9113C8.5989 22.1208 9.14512 22.2271 9.69621 22.224C10.2473 22.221 10.7923 22.1087 11.2997 21.8936C11.8071 21.6785 12.2667 21.3648 12.6521 20.9708L17.0719 16.551C17.4588 16.1641 17.7657 15.7048 17.9751 15.1992C18.1845 14.6937 18.2923 14.1519 18.2923 13.6047C18.2923 13.0575 18.1845 12.5157 17.9751 12.0101C17.7657 11.5046 17.4598 11.0452 17.0729 10.6583Z" fill="#333333"/>
</svg>
