<svg width="24" height="24" viewBox="0 0 24 24" fill="none" xmlns="http://www.w3.org/2000/svg">
<path d="M22.4352 16.894V20.0244C22.4365 20.315 22.3769 20.6027 22.2604 20.869C22.1441 21.1352 21.9733 21.3742 21.7592 21.5707C21.545 21.7672 21.2922 21.9168 21.0169 22.0098C20.7416 22.1029 20.4499 22.1376 20.1604 22.1114C16.9496 21.7625 13.8651 20.6653 11.1552 18.9079C8.63403 17.3058 6.49648 15.1683 4.89438 12.647C3.13088 9.92481 2.03341 6.82546 1.6909 3.60008C1.66483 3.31152 1.69913 3.0207 1.7916 2.74612C1.88408 2.47155 2.03272 2.21923 2.22805 2.00525C2.42338 1.79126 2.66114 1.6203 2.92616 1.50323C3.1912 1.38616 3.47769 1.32557 3.76743 1.3253H6.89786C7.40427 1.32031 7.89521 1.49964 8.27917 1.82985C8.66314 2.16006 8.91394 2.61863 8.98482 3.12008C9.11694 4.12188 9.36198 5.10553 9.71525 6.05225C9.85565 6.42573 9.88603 6.83164 9.80281 7.22187C9.71958 7.61209 9.52624 7.97028 9.24569 8.25399L7.92047 9.57921C9.40592 12.1916 11.569 14.3547 14.1813 15.8401L15.5065 14.5148C15.7903 14.2344 16.1485 14.041 16.5386 13.9577C16.9289 13.8746 17.3348 13.9049 17.7083 14.0453C18.655 14.3986 19.6387 14.6436 20.6404 14.7757C21.1474 14.8472 21.6103 15.1025 21.9412 15.4931C22.2721 15.8837 22.448 16.3822 22.4352 16.894Z" stroke="white" stroke-width="2.08696" stroke-linecap="round" stroke-linejoin="round"/>
</svg>
