<svg width="25" height="25" viewBox="0 0 25 25" fill="none" xmlns="http://www.w3.org/2000/svg">
<path d="M11.5655 10.8728C11.2469 11.0568 10.9899 11.3311 10.8272 11.6611C10.6645 11.9912 10.6032 12.362 10.6513 12.7268C10.6993 13.0916 10.8544 13.434 11.097 13.7106C11.3396 13.9872 11.6588 14.1857 12.0142 14.2809C12.3696 14.3761 12.7453 14.3638 13.0937 14.2456C13.4421 14.1273 13.7477 13.9083 13.9716 13.6164C14.1956 13.3245 14.328 12.9727 14.3521 12.6055C14.3761 12.2384 14.2907 11.8723 14.1067 11.5537C13.86 11.1265 13.4537 10.8147 12.9771 10.687C12.5006 10.5593 11.9928 10.6262 11.5655 10.8728ZM19.9038 12.8913C19.7816 12.7517 19.6527 12.6117 19.5171 12.4714C19.6119 12.3718 19.7035 12.2723 19.7921 12.173C21.4649 10.2935 22.1708 8.40868 21.5167 7.27552C20.8894 6.18907 19.0235 5.86529 16.6876 6.31949C16.4575 6.36451 16.2287 6.41528 16.0011 6.47183C15.9576 6.32166 15.9113 6.17235 15.8622 6.02391C15.0697 3.63586 13.7896 2.08251 12.4812 2.08334C11.2266 2.08391 10.0141 3.53864 9.24053 5.78907C9.16442 6.01107 9.09402 6.23493 9.02932 6.46064C8.87718 6.42331 8.7244 6.38883 8.57098 6.3572C6.1064 5.85118 4.12133 6.18445 3.46844 7.31824C2.8424 8.40549 3.49712 10.1826 5.06064 11.9767C5.2157 12.1542 5.37515 12.3277 5.53899 12.4973C5.34585 12.6962 5.16295 12.8951 4.99248 13.0928C3.46686 14.8616 2.84958 16.6096 3.47461 17.6922C4.12012 18.8104 6.07726 19.1759 8.4594 18.7071C8.65246 18.6689 8.84444 18.6258 9.03536 18.578C9.1053 18.8221 9.18202 19.0641 9.26552 19.304C10.0356 21.5093 11.2414 22.9172 12.4916 22.9167C13.7826 22.916 15.0769 21.4033 15.8611 19.1055C15.923 18.924 15.9816 18.7354 16.0372 18.5412C16.2838 18.6026 16.532 18.657 16.7818 18.7045C19.077 19.1388 20.899 18.7973 21.5229 17.7139C22.1672 16.5949 21.5029 14.7181 19.9038 12.8913ZM4.23968 7.76234C4.64162 7.06442 6.26389 6.79214 8.39185 7.229C8.52785 7.25697 8.66617 7.28822 8.80683 7.32275C8.59907 8.24178 8.45248 9.17357 8.36802 10.112C7.6002 10.6522 6.86815 11.2414 6.17646 11.8762C6.02407 11.7186 5.87574 11.5571 5.73148 11.3919C4.39183 9.8547 3.8624 8.41751 4.23968 7.76234ZM8.28829 13.7291C7.75645 13.3264 7.26219 12.9138 6.81359 12.4989C7.26188 12.0865 7.75645 11.6754 8.2872 11.2737C8.26813 11.6829 8.25868 12.0923 8.25885 12.5021C8.25913 12.9112 8.26895 13.3202 8.28829 13.7291ZM8.28765 17.8339C7.3848 18.0347 6.45271 18.0675 5.53795 17.9309C5.28719 17.9114 5.04309 17.8406 4.82075 17.7231C4.5984 17.6055 4.40253 17.4435 4.24524 17.2473C3.866 16.5903 4.36166 15.1868 5.66641 13.6741C5.83045 13.4845 5.99986 13.2999 6.17465 13.1202C6.86645 13.7583 7.59969 14.3498 8.36957 14.8911C8.45519 15.8415 8.6035 16.7853 8.81354 17.7161C8.63924 17.7597 8.46395 17.799 8.28765 17.8339ZM15.6847 9.45956C15.3353 9.23943 14.9816 9.02635 14.6236 8.82035C14.2713 8.61757 13.9148 8.42241 13.554 8.23486C14.1717 7.97514 14.7789 7.75332 15.3651 7.57255C15.5033 8.19578 15.61 8.82559 15.6847 9.45956ZM10.0822 6.07835C10.7449 4.15008 11.7256 2.97363 12.4817 2.97331C13.287 2.97292 14.3333 4.24233 15.0175 6.30417C15.0619 6.43858 15.1039 6.57375 15.1435 6.70967C14.2447 6.98845 13.3652 7.32641 12.511 7.72134C11.6604 7.32177 10.7837 6.98004 9.88708 6.69848C9.94701 6.4902 10.0121 6.28349 10.0822 6.07835ZM9.66514 7.56146C10.2766 7.75395 10.8779 7.97715 11.4669 8.23021C10.7371 8.60681 10.0262 9.01702 9.33421 9.46084C9.41782 8.79625 9.52907 8.15951 9.66514 7.56146ZM9.33573 15.5413C9.68084 15.7623 10.031 15.975 10.3862 16.1796C10.7485 16.3882 11.1156 16.588 11.4876 16.7791C10.8941 17.041 10.2876 17.2721 9.67047 17.4718C9.53283 16.8654 9.42036 16.2175 9.33573 15.5413ZM15.0187 18.8179C14.7416 19.7003 14.3044 20.5242 13.7291 21.2484C13.5869 21.4558 13.4036 21.632 13.1907 21.7658C12.9778 21.8996 12.7397 21.9884 12.4911 22.0266C11.7325 22.027 10.7643 20.8964 10.1057 19.0105C10.0282 18.7875 9.95682 18.5625 9.89167 18.3355C10.7926 18.0448 11.6728 17.6934 12.5262 17.2837C13.3875 17.6812 14.2739 18.0217 15.1797 18.303C15.1303 18.4759 15.0766 18.6475 15.0187 18.8179ZM15.3961 17.4385C14.8031 17.2552 14.1871 17.0296 13.5605 16.7661C13.9138 16.5802 14.2696 16.3839 14.6279 16.1771C14.9957 15.9648 15.354 15.7471 15.703 15.5241C15.6335 16.1671 15.5311 16.806 15.3961 17.4385ZM15.861 12.4982C15.8617 13.1308 15.842 13.7629 15.8017 14.3945C15.2885 14.7418 14.7467 15.081 14.183 15.4064C13.6216 15.7305 13.0653 16.0284 12.5197 16.298C11.9455 16.0228 11.3824 15.7263 10.8304 15.4084C10.2814 15.0924 9.74507 14.756 9.22132 14.399C9.17344 13.7676 9.14932 13.1351 9.14896 12.5014C9.14853 11.8682 9.17224 11.2358 9.21986 10.6038C9.73293 10.2535 10.2708 9.9146 10.8269 9.59352C11.3856 9.27093 11.9488 8.97434 12.5089 8.70552C13.076 8.98113 13.6329 9.2765 14.1795 9.59162C14.7281 9.90689 15.2659 10.2398 15.7931 10.5902C15.8383 11.2253 15.8609 11.8613 15.861 12.4982ZM16.8576 7.19319C18.8589 6.8039 20.368 7.06577 20.746 7.7205C21.1487 8.41802 20.5715 9.95852 19.1274 11.5813C19.0476 11.6708 18.9648 11.7608 18.879 11.8511C18.1754 11.215 17.4292 10.6276 16.6457 10.0929C16.5667 9.16471 16.4256 8.24288 16.2234 7.33357C16.4389 7.28054 16.6503 7.23375 16.8576 7.19319ZM16.7223 11.2398C17.2507 11.6256 17.7588 12.0386 18.2445 12.4771C17.761 12.9228 17.2545 13.3429 16.7271 13.7357C16.7432 13.3233 16.7512 12.9107 16.7509 12.4978C16.7507 12.0784 16.7412 11.659 16.7223 11.2398ZM20.7515 17.2697C20.3729 17.9272 18.91 18.2013 16.9471 17.83C16.7222 17.7875 16.4914 17.7369 16.2547 17.6783C16.452 16.7573 16.5869 15.824 16.6583 14.8848C17.4405 14.3408 18.1843 13.7436 18.8844 13.0975C19.007 13.2247 19.1235 13.3514 19.234 13.4775C19.8602 14.1583 20.3556 14.9485 20.6956 15.8086C20.8043 16.0354 20.8654 16.2821 20.875 16.5334C20.8846 16.7847 20.8426 17.0353 20.7515 17.2697Z" fill="#333333"/>
</svg>
