<svg width="25" height="25" viewBox="0 0 25 25" fill="none" xmlns="http://www.w3.org/2000/svg">
<g clip-path="url(#clip0_60_43)">
<path d="M21.51 14.3708C21.5404 14.3698 21.5764 14.3687 21.6131 14.3687C22.2647 14.3687 22.8811 14.5708 23.4279 14.9312L23.4037 14.9167C23.9022 15.2406 24.3115 15.7198 24.6076 16.3073L24.6146 16.3219C24.8482 16.776 24.9873 17.3375 24.9873 17.9417C24.9873 17.9854 24.9865 18.0292 24.985 18.0719V18.0656C24.9607 18.6687 24.7553 19.201 24.4397 19.574L24.4381 19.576C24.2654 19.8021 24.0568 19.9792 23.8248 20.0917L23.8131 20.0969C23.6829 20.1316 23.6113 20.1056 23.5982 20.0187C23.5852 19.9319 23.6438 19.8365 23.774 19.7323C24.1271 19.4469 24.3826 18.9865 24.4756 18.4437L24.4779 18.4302C24.4803 18.3865 24.4818 18.3354 24.4818 18.2833C24.4818 17.9594 24.424 17.6531 24.3217 17.3823L24.3256 17.3937C24.1561 16.9219 23.9029 16.5344 23.5912 16.2542L23.5834 16.2479C23.117 15.8479 22.5576 15.5854 21.9561 15.5198L21.9436 15.5187C21.7389 15.4781 21.5029 15.4552 21.2623 15.4552C20.6365 15.4552 20.0389 15.6125 19.4889 15.899L19.5217 15.8833C19.635 16.2365 19.7061 16.6458 19.7162 17.075V17.0802C19.7037 17.9604 19.349 18.726 18.8217 19.1531L18.8131 19.1594C18.5709 19.3885 18.2943 19.5896 17.9998 19.7458L17.9725 19.7583C17.7936 19.875 17.5834 19.9427 17.3615 19.9427C17.3357 19.9427 17.3107 19.9417 17.2857 19.9396H17.2896C16.7954 19.8014 16.6782 19.2285 16.9381 18.2208C17.0514 17.7823 17.21 17.4021 17.4107 17.0677L17.4061 17.075C17.6631 16.6271 17.9451 16.2344 18.2568 15.8865L18.2654 15.8771L18.1889 15.725C18.0459 15.4 17.9146 15.0219 17.8092 14.6271L17.7982 14.5792C17.7201 14.2319 17.655 13.9024 17.6029 13.5906L17.5639 13.226L17.1732 14.2146C16.8347 15.0479 16.5092 15.7767 16.1967 16.401L16.0795 16.6615C16.2107 17.0865 16.3076 17.5792 16.3514 18.0938L16.3529 18.1198C16.3561 18.1687 16.3576 18.2271 16.3576 18.2854C16.3576 19.075 16.0654 19.7729 15.617 20.199L15.6115 20.2042C15.3975 20.3802 15.142 20.5625 14.8771 20.725L14.8303 20.751C14.5545 20.9104 14.235 21.0146 13.8998 21.0375H13.8928C13.867 21.0396 13.8365 21.0417 13.8061 21.0417C13.6107 21.0417 13.4256 20.9823 13.26 20.8771L13.2678 20.8812C13.1686 20.7677 13.1061 20.601 13.1061 20.4146C13.1061 20.3198 13.1225 20.2292 13.1514 20.149L13.1498 20.1531C13.4623 19.5687 13.7701 19.0604 14.0975 18.575L14.0873 18.5906L14.9467 17.1333L14.7912 16.6646C14.6662 16.3583 14.5467 15.9969 14.4506 15.6219L14.4396 15.5719C14.3615 15.2247 14.2964 14.8951 14.2443 14.5833L14.2053 14.2187L13.8146 15.4687C13.5027 16.4403 13.2162 17.2733 12.9553 17.9677C12.5662 19.0094 12.2407 19.808 11.9787 20.3635L11.9006 20.5198C11.5886 21.1788 11.2891 21.5083 11.0021 21.5083C10.7152 21.5083 10.5206 21.2653 10.4186 20.7792C10.3436 20.4208 10.2998 20.0094 10.2998 19.5844C10.2998 19.5469 10.2998 19.5094 10.3006 19.4719V19.4771L10.3787 18.7479V18.8C10.1704 19.459 9.96205 20.0663 9.75371 20.6219C9.61543 20.9823 9.47324 21.2896 9.31387 21.5792L9.32402 21.5594C9.16309 21.7844 8.93652 21.924 8.68574 21.924C8.6834 21.924 8.68184 21.924 8.67949 21.924C8.66309 21.926 8.64434 21.926 8.62559 21.926C8.42793 21.926 8.24824 21.826 8.11231 21.6625L8.11309 21.6635C7.84043 21.2906 7.63809 20.825 7.5334 20.3052L7.52949 20.2833C7.40137 19.8094 7.32793 19.2615 7.32793 18.6906C7.32793 18.6167 7.32949 18.5437 7.33184 18.4719V18.4823C7.39356 17.6531 7.51777 16.8937 7.69981 16.1698L7.6834 16.2437L6.27793 17.3375V17.3896C6.48184 17.9542 6.60137 18.6167 6.60137 19.3167C6.60137 19.4448 6.59746 19.5719 6.58965 19.6969L6.59043 19.6802C6.54902 20.7531 6.29199 21.7354 5.87715 22.5656L5.8873 22.5448C5.45215 23.4656 4.82481 24.1771 4.07949 24.5885L4.05371 24.601C3.63418 24.8521 3.14355 24.999 2.62793 24.999C2.30137 24.999 1.98418 24.9406 1.68418 24.8302L1.70918 24.8375C1.46074 24.726 1.25762 24.5052 1.12871 24.2198L1.12637 24.2135C0.944336 23.8615 0.829492 23.4312 0.811524 22.9677V22.9615C0.80293 22.8562 0.798242 22.7344 0.798242 22.6104C0.798242 22.076 0.889649 21.5698 1.05293 21.1187L1.0459 21.1396C1.49434 20.1198 2.11465 19.2938 2.85527 18.7125L2.87871 18.6958C3.40293 18.2115 4.00527 17.7417 4.63418 17.3323L4.71699 17.2833L4.91231 17.1271C4.67793 16.884 4.24824 16.4674 3.62324 15.8771C2.78809 15.1312 2.0623 14.3781 1.37793 13.5635L1.39746 13.5865C0.735742 12.8271 0.253711 11.8125 0.0373047 10.6573L0.0310547 10.6177C0.0107422 10.4573 -0.000976562 10.2729 -0.000976562 10.0854C-0.000976562 9.49792 0.112305 8.94583 0.310742 8.46562L0.304492 8.48333C0.741992 7.22917 1.34824 6.17187 2.09199 5.32188L2.10137 5.31146C2.90605 4.29792 3.81699 3.41562 4.80605 2.70104L4.87402 2.65625C5.75762 1.97604 6.78965 1.34375 7.86543 0.836458L7.99824 0.782292C8.99746 0.294792 10.1514 0.009375 11.3545 0.00416667H11.3561C11.4107 0.00208333 11.4756 0 11.5404 0C12.51 0 13.4271 0.298958 14.2428 0.83125L14.2068 0.809375C14.91 1.23646 15.4365 2.04063 15.6475 3.02396L15.6521 3.04896C15.717 3.38437 15.7537 3.76979 15.7537 4.16667C15.7537 4.825 15.6514 5.45208 15.4678 6.02083L15.4764 5.99062C15.142 7.07083 14.6662 7.99062 14.0725 8.74792L14.0701 8.75104C13.4686 9.54583 12.7475 10.1812 11.9467 10.6052L11.9037 10.625C11.0646 11.1052 10.0904 11.4073 9.06777 11.4573L9.05293 11.4583C8.90293 11.4812 8.72949 11.4937 8.55371 11.4937C8.09121 11.4937 7.64512 11.4052 7.22324 11.2396L7.25684 11.251C6.87949 11.0906 6.55371 10.8417 6.27715 10.5187L6.28027 10.5219C6.08652 10.3115 5.92871 10.0521 5.81621 9.75729L5.81152 9.74375C5.7334 9.46597 5.72689 9.30104 5.79199 9.24896C5.8571 9.19687 5.90267 9.18819 5.92871 9.22292L6.12402 9.48333C6.34199 9.75312 6.60215 9.96562 6.88965 10.101L6.90527 10.1073C7.30059 10.2906 7.75684 10.3969 8.23106 10.3969C8.3834 10.3969 8.5334 10.3865 8.68106 10.3646L8.66309 10.3667C9.92715 10.1677 11.067 9.59271 12.0506 8.72812L12.0217 8.75208C12.8529 8.09271 13.5256 7.18646 13.999 6.10625L14.0131 6.07083C14.2482 5.61042 14.3889 5.04167 14.3889 4.42917C14.3889 4.05312 14.3357 3.69271 14.2389 3.36146L14.2443 3.38125C13.9521 2.76562 13.4795 2.33229 12.9279 2.2125L12.917 2.21042C12.4889 2.06979 11.9967 1.98854 11.4912 1.98854C11.0842 1.98854 10.6857 2.04062 10.3006 2.14062L10.3396 2.13229C9.02168 2.44896 7.84356 2.99167 6.75684 3.7375L6.82793 3.69271C3.62585 5.84549 1.97246 8.05 1.86777 10.3062V10.3573C1.86777 11.2667 2.13574 12.0927 2.57246 12.7031L2.57168 12.7021C3.06934 13.4396 3.61934 14.0906 4.22012 14.6531L4.25059 14.6802C4.79824 15.226 5.28262 15.7896 5.7334 16.3979L5.73418 16.4L5.81231 16.5042L8.31231 14.6823C8.59746 14.1323 8.94043 13.6677 9.33418 13.2927L9.34668 13.2812C9.65918 12.9312 10.0561 12.7031 10.4912 12.6573L10.4982 12.6562C10.5139 12.6542 10.5318 12.6542 10.5506 12.6542C10.842 12.6542 11.092 12.8885 11.1998 13.224L11.2014 13.2302C11.2834 13.475 11.3311 13.7615 11.3311 14.0625C11.3311 14.1542 11.3264 14.2448 11.3178 14.3344L11.3186 14.324L11.2428 14.8375L11.36 14.7333C11.4412 14.651 11.5436 14.6021 11.6545 14.6021C11.7248 14.6021 11.7912 14.6219 11.8514 14.6573L11.8482 14.6552C11.9982 14.7073 12.1068 14.8865 12.1068 15.099C12.1068 15.1354 12.1037 15.1708 12.0975 15.2052L12.0982 15.2021L11.9811 15.775C11.7467 17.0243 11.5907 17.9267 11.5131 18.4823C11.474 18.6625 11.4521 18.8698 11.4521 19.0844C11.4521 19.1292 11.4529 19.1729 11.4553 19.2167V19.2104C11.4683 19.4187 11.4878 19.5229 11.5139 19.5229C11.5399 19.5229 11.5917 19.4187 11.6693 19.2104L11.7865 18.8458C11.8126 18.8458 11.8126 18.8632 11.7865 18.8979L12.2162 17.7C13.2318 14.7153 13.7785 13.0486 13.8561 12.7L14.0904 11.7115C14.1165 11.642 14.2206 11.5729 14.4029 11.5042C14.5881 11.4375 14.7998 11.399 15.0186 11.399C15.0365 11.399 15.0545 11.399 15.0717 11.4H15.0693C15.4339 11.4 15.6162 11.5215 15.6162 11.7646L15.5771 12.025C15.4896 12.3458 15.4029 12.7469 15.3357 13.1573L15.3271 13.2229C15.3115 13.3573 15.3021 13.5115 15.3021 13.6698C15.3021 13.8802 15.3178 14.0854 15.3482 14.2844L15.3459 14.2646L15.385 14.4719C15.4646 14.9062 15.5857 15.2875 15.7443 15.6354L15.7365 15.6177C16.0485 14.924 16.348 14.2125 16.635 13.4833C16.8615 12.9802 17.0725 12.3969 17.242 11.7865L17.26 11.7135C17.3186 11.3208 17.3857 10.9896 17.4678 10.6667L17.4553 10.725C17.4813 10.6208 17.5925 10.5427 17.7889 10.4906C17.9748 10.4406 18.1881 10.4125 18.4061 10.4125H18.4342H18.4326C18.7972 10.4125 18.9917 10.534 19.0162 10.7771L18.9381 10.9844C18.8451 11.3344 18.7639 11.7552 18.7092 12.1875L18.7045 12.2344C18.6975 12.3354 18.6928 12.4521 18.6928 12.5708C18.6928 12.8198 18.7115 13.0635 18.7467 13.299L18.7436 13.275V13.4823C18.8334 13.9365 18.967 14.3354 19.142 14.6969L19.1342 14.6802L19.2514 15.0448C19.9037 14.6177 20.6709 14.3677 21.4818 14.3677H21.5123H21.5107L21.51 14.3708ZM4.76074 21.926C5.30371 21.1781 5.63887 20.1573 5.63887 19.0323C5.63887 18.5979 5.58887 18.1792 5.49668 17.7854L5.50293 17.8146L4.87793 18.3354C4.24043 18.8198 3.68887 19.3604 3.18965 19.975L3.1959 19.9677C2.81699 20.4323 2.5373 21.0333 2.3998 21.7115L2.39512 21.7375C2.27793 22.3799 2.33652 22.7965 2.5709 22.9875C2.71387 23.075 2.88184 23.126 3.05762 23.126C3.2498 23.126 3.43184 23.0656 3.59199 22.9573L3.58496 22.9615C4.04902 22.7365 4.44199 22.3792 4.75449 21.9219L4.75684 21.9187L4.76074 21.926ZM9.99277 17.1302C10.123 16.6788 10.2662 16.1406 10.4225 15.5156C10.6308 14.6823 10.7024 14.1965 10.6373 14.0583C10.5722 13.9201 10.4485 13.9028 10.2662 14.0062C10.049 14.1469 9.86699 14.3396 9.72168 14.576L9.71934 14.5802C9.55684 14.8542 9.40215 15.1604 9.26465 15.4823L9.25059 15.5177C9.09277 15.8625 8.95918 16.2594 8.86621 16.6802L8.85918 16.7156C8.7084 17.2604 8.6209 17.8906 8.6209 18.5469C8.6209 18.6354 8.62246 18.7229 8.62559 18.8104V18.7979C8.65163 19.4917 8.73496 19.8649 8.87559 19.9177C9.01621 19.9705 9.17897 19.7187 9.36387 19.1625C9.54277 18.7323 9.70215 18.2323 9.8209 17.7083L9.83184 17.6521C9.90944 17.4062 9.96257 17.2323 9.99121 17.1302H9.99277ZM14.3256 19.8906C14.867 19.5667 15.2482 18.8844 15.3014 18.0771L15.3021 18.0688V18.0167L14.8725 18.7458L14.092 19.8917C14.0803 19.9042 14.0725 19.9229 14.0725 19.9437C14.0725 19.9646 14.0803 19.9833 14.0912 19.9958C14.1162 20.0299 14.1943 19.9951 14.3256 19.8917V19.8906ZM17.6842 18.901C18.2748 18.676 18.6998 17.9625 18.6998 17.1177C18.6998 17.1042 18.6998 17.0906 18.6998 17.0771V17.0792C18.692 16.8708 18.6639 16.675 18.6178 16.4896L18.6209 16.5052C18.317 16.8656 18.0678 17.2969 17.8873 17.7833L17.8787 17.8073C17.6438 18.4316 17.5782 18.7955 17.6818 18.899L17.6842 18.901Z" fill="#333333"/>
</g>
<defs>
<clipPath id="clip0_60_43">
<rect width="25" height="25" fill="white"/>
</clipPath>
</defs>
</svg>
