<svg width="25" height="25" viewBox="0 0 25 25" fill="none" xmlns="http://www.w3.org/2000/svg">
<path d="M24.1923 2.52888C23.8958 2.28214 23.5378 2.12043 23.1566 2.06096C22.7755 2.00149 22.3853 2.04649 22.0276 2.19116L3.36002 9.72798C2.9608 9.89223 2.62098 10.174 2.38565 10.5359C2.15032 10.8978 2.03061 11.3227 2.04242 11.7543C2.05423 12.1858 2.197 12.6035 2.45177 12.952C2.70654 13.3005 3.06127 13.5633 3.46888 13.7054L7.24492 15.0187L9.3496 21.9788C9.37821 22.0717 9.41971 22.1602 9.47292 22.2417C9.48099 22.2542 9.49237 22.2635 9.50096 22.2756C9.56242 22.3614 9.6367 22.4372 9.7212 22.5004C9.74523 22.5187 9.76824 22.5358 9.79393 22.5521C9.89282 22.6177 10.0023 22.6657 10.1176 22.6939L10.1299 22.6949L10.1369 22.6979C10.2062 22.712 10.2768 22.7192 10.3475 22.7193C10.3543 22.7193 10.3603 22.716 10.3671 22.7159C10.4738 22.714 10.5796 22.6957 10.6807 22.6614C10.7042 22.6534 10.7244 22.64 10.7472 22.6303C10.8226 22.5991 10.894 22.559 10.96 22.511C11.0129 22.4665 11.0657 22.422 11.1186 22.3775L13.9333 19.2698L18.1315 22.5219C18.5011 22.8097 18.9561 22.9661 19.4245 22.9665C19.9153 22.9659 20.3909 22.7965 20.7717 22.4868C21.1525 22.1772 21.4153 21.746 21.5159 21.2656L24.9146 4.5817C24.9916 4.2062 24.9651 3.81682 24.8379 3.45523C24.7106 3.09364 24.4875 2.77343 24.1923 2.52888ZM10.7605 15.3503C10.6161 15.4942 10.5174 15.6775 10.4767 15.8773L10.1543 17.4439L9.33759 14.7428L13.5722 12.5377L10.7605 15.3503ZM19.4082 20.875L14.4471 17.0318C14.2395 16.8714 13.9791 16.7951 13.7178 16.8181C13.4565 16.8411 13.2135 16.9617 13.0371 17.1559L12.1357 18.1509L12.4543 16.6025L19.8324 9.22441C20.0085 9.04853 20.1158 8.8154 20.1348 8.56724C20.1539 8.31908 20.0834 8.07231 19.9362 7.87161C19.789 7.67092 19.5748 7.52958 19.3324 7.47319C19.09 7.41681 18.8354 7.44911 18.6147 7.56425L8.02591 13.0774L4.14636 11.6577L22.874 4.16562L19.4082 20.875Z" fill="black"/>
</svg>
