<svg width="25" height="25" viewBox="0 0 25 25" fill="none" xmlns="http://www.w3.org/2000/svg">
<path d="M17.2917 14.5833C17.0834 14.4792 15.7292 13.8542 15.5209 13.75C15.3125 13.6458 15.1042 13.6458 14.8959 13.8542C14.6875 14.0625 14.2709 14.6875 14.0625 14.8958C13.9584 15.1042 13.75 15.1042 13.5417 15C12.8125 14.6875 12.0834 14.2708 11.4584 13.75C10.9375 13.2292 10.4167 12.6042 10 11.9792C9.89587 11.7708 10 11.5625 10.1042 11.4583C10.2084 11.3542 10.3125 11.1458 10.5209 11.0417C10.625 10.9375 10.7292 10.7292 10.7292 10.625C10.8334 10.5208 10.8334 10.3125 10.7292 10.2083C10.625 10.1042 10.1042 8.85416 9.89587 8.33332C9.79171 7.60416 9.58337 7.60416 9.37504 7.60416H8.85421C8.64587 7.60416 8.33337 7.81249 8.22921 7.91666C7.60421 8.54166 7.29171 9.27082 7.29171 10.1042C7.39587 11.0417 7.70837 11.9792 8.33337 12.8125C9.47921 14.4792 10.9375 15.8333 12.7084 16.6667C13.2292 16.875 13.6459 17.0833 14.1667 17.1875C14.6875 17.3958 15.2084 17.3958 15.8334 17.2917C16.5625 17.1875 17.1875 16.6667 17.6042 16.0417C17.8125 15.625 17.8125 15.2083 17.7084 14.7917L17.2917 14.5833ZM19.8959 5.10416C15.8334 1.04166 9.27087 1.04166 5.20837 5.10416C1.87504 8.43749 1.25004 13.5417 3.54171 17.6042L2.08337 22.9167L7.60421 21.4583C9.16671 22.2917 10.8334 22.7083 12.5 22.7083C18.2292 22.7083 22.8125 18.125 22.8125 12.3958C22.9167 9.68749 21.7709 7.08332 19.8959 5.10416ZM17.0834 19.6875C15.7292 20.5208 14.1667 21.0417 12.5 21.0417C10.9375 21.0417 9.47921 20.625 8.12504 19.8958L7.81254 19.6875L4.58337 20.5208L5.41671 17.3958L5.20837 17.0833C2.70837 12.9167 3.95837 7.70832 8.02087 5.10416C12.0834 2.49999 17.2917 3.85416 19.7917 7.81249C22.2917 11.875 21.1459 17.1875 17.0834 19.6875Z" fill="black"/>
</svg>
